<svg width="512" height="512" xmlns="http://www.w3.org/2000/svg">
 <title>ionicons-v5-g</title>

 <g>
  <title>background</title>
  <rect fill="none" id="canvas_background" height="402" width="582" y="-1" x="-1"/>
 </g>
 <g>
  <title>Layer 1</title>
  <line id="svg_3" fill="none" stroke="#1fad1f" stroke-linecap="round" stroke-linejoin="round" stroke-width="32px" y2="448" x2="256" y1="368" x1="256"/>
  <line stroke-opacity="0" id="svg_1" fill="none" stroke="#5fbf00" stroke-linecap="round" stroke-linejoin="round" stroke-width="32px" y2="448" x2="320" y1="448" x1="192"/>
  <path id="svg_2" fill="none" stroke="#ff0000" stroke-linecap="round" stroke-linejoin="round" stroke-width="32px" d="m384,208l0,32c0,70.4 -57.6,128 -128,128l0,0c-70.4,0 -128,-57.6 -128,-128l0,-32"/>
  <path fill="#007fff" id="svg_4" d="m256,320a78.83,78.83 0 0 1 -56.55,-24.1a80.89,80.89 0 0 1 -23.45,-56.9l0,-111a79.69,79.69 0 0 1 80,-80c44.86,0 80,35.14 80,80l0,111c0,44.66 -35.89,81 -80,81z"/>
 </g>
</svg>